<svg width="289" height="266" viewBox="0 0 289 266" fill="none" xmlns="http://www.w3.org/2000/svg">
<path d="M98.1071 0.00496292C88.9066 -0.227722 77.9123 7.88436 76.0109 20.333C73.9868 33.6083 86.2759 44.9607 96.0897 46.4303C105.904 47.8999 120.008 39.8074 121.971 26.5199C123.995 13.2201 112.896 1.6446 103.021 0.16889C102.407 0.0770403 98.7204 0.0172095 98.1071 0.00496292ZM170.675 47.2876L160.125 50.4717L165.216 67.6781L176.809 67.9843L170.675 47.2876ZM81.9823 51.9413C80.3263 95.1105 81.737 138.218 79.7742 175.938C70.0831 197.859 57.2637 218.923 48.8729 236.681L64.6241 244.274C77.3821 223.638 90.5081 202.635 98.4818 181.265L105.413 142.444L137.921 170.549L147.858 224.496L165.829 220.944L155.034 159.344L119.398 126.523L113.693 73.6177L143.196 92.7836C159.573 93.3347 170.859 91.6202 185.886 89.2934L186.5 79.3124L143.073 78.0265L114.552 52.3087C108.725 56.4113 101.733 58.432 94.4336 57.3298C89.7107 56.595 85.5399 54.6968 81.9823 51.9413ZM71.8005 59.9016L46.9776 67.0658L43.322 119.42C51.6208 123.523 62.3547 126.523 69.8377 121.502L71.8005 59.9016ZM288.134 99.8866L229.435 147.71L209.808 179.489L186.438 100.377C182.574 100.928 178.955 101.479 175.398 101.969L202.079 192.042L188.217 214.515L176.318 216.597L178.587 229.639L139.025 237.477L136.449 223.577L84.7425 232.64C78.9155 242.192 74.2539 249.724 68.795 258.48L38.4212 243.845L0 265.154H288.134V99.8866Z" fill="#FFF8F8"/>
</svg>
